<svg width="20" height="20" viewBox="0 0 20 20" fill="none" xmlns="http://www.w3.org/2000/svg">
<path fill-rule="evenodd" clip-rule="evenodd" d="M17.7073 0.707201C17.3168 0.316675 16.6836 0.316675 16.2931 0.707201L10.0002 7.00009L3.73677 0.736639C3.34621 0.346113 2.71303 0.346113 2.32253 0.736639L0.90834 2.15085C0.517776 2.54138 0.517776 3.17454 0.90834 3.56507L7.17177 9.82852L0.736771 16.2636C0.346207 16.6541 0.346207 17.2872 0.736771 17.6778L2.15096 19.092C2.54146 19.4825 3.17464 19.4825 3.56514 19.092L10.0002 12.6569L16.4647 19.1214C16.8552 19.5119 17.4884 19.5119 17.8789 19.1214L19.2931 17.7072C19.6836 17.3167 19.6836 16.6835 19.2931 16.293L12.8286 9.82851L19.1215 3.53563C19.512 3.1451 19.512 2.51194 19.1215 2.12141L17.7073 0.707201Z" fill="black"/>
</svg>
