<svg width="24" height="24" viewBox="0 0 24 24" fill="none" xmlns="http://www.w3.org/2000/svg">
<path d="M19.5 13.5C19.5 14.9834 19.0601 16.4334 18.236 17.6668C17.4119 18.9001 16.2406 19.8614 14.8701 20.4291C13.4997 20.9968 11.9917 21.1453 10.5368 20.8559C9.08197 20.5665 7.7456 19.8522 6.6967 18.8033C5.64781 17.7544 4.9335 16.418 4.64411 14.9632C4.35473 13.5083 4.50325 12.0003 5.07091 10.6299C5.63856 9.25943 6.59986 8.08809 7.83323 7.26398C9.0666 6.43987 10.5166 6 12 6H15V9.75L19.5 5.25L15 0.75V4.5H12C10.22 4.5 8.47991 5.02784 6.99987 6.01677C5.51983 7.00571 4.36628 8.41132 3.68509 10.0559C3.0039 11.7004 2.82567 13.51 3.17294 15.2558C3.5202 17.0016 4.37737 18.6053 5.63604 19.864C6.89472 21.1226 8.49836 21.9798 10.2442 22.3271C11.99 22.6743 13.7996 22.4961 15.4442 21.8149C17.0887 21.1337 18.4943 19.9802 19.4832 18.5001C20.4722 17.0201 21 15.28 21 13.5H19.5Z" fill="#A7A7A7"/>
<path d="M14.7224 16.5975C14.391 16.6056 14.0623 16.5363 13.7624 16.395C13.4961 16.2598 13.2669 16.0616 13.0949 15.8175C12.9063 15.5327 12.7739 15.2145 12.7049 14.88C12.6163 14.4659 12.5735 14.0434 12.5774 13.62C12.5743 13.1966 12.6171 12.7742 12.7049 12.36C12.7753 12.0259 12.9076 11.7079 13.0949 11.4225C13.2669 11.1784 13.4961 10.9801 13.7624 10.845C14.0623 10.7037 14.391 10.6344 14.7224 10.6425C15.034 10.6188 15.3465 10.6753 15.63 10.8065C15.9136 10.9378 16.1589 11.1396 16.3424 11.3925C16.7291 12.0576 16.9117 12.8218 16.8674 13.59C16.9117 14.3581 16.7291 15.1223 16.3424 15.7875C16.1659 16.0514 15.9237 16.2649 15.6396 16.407C15.3556 16.549 15.0395 16.6146 14.7224 16.5975ZM14.7224 15.6825C14.8736 15.6915 15.0243 15.6576 15.157 15.5846C15.2897 15.5116 15.399 15.4025 15.4724 15.27C15.6516 14.9192 15.7466 14.5314 15.7499 14.1375V13.1025C15.7661 12.7157 15.6916 12.3304 15.5324 11.9775C15.4486 11.849 15.334 11.7435 15.1991 11.6705C15.0642 11.5975 14.9133 11.5592 14.7599 11.5592C14.6065 11.5592 14.4555 11.5975 14.3207 11.6705C14.1858 11.7435 14.0712 11.849 13.9874 11.9775C13.8282 12.3304 13.7537 12.7157 13.7699 13.1025V14.1375C13.7544 14.5267 13.8288 14.9142 13.9874 15.27C14.0589 15.4007 14.1658 15.5087 14.2957 15.5817C14.4257 15.6546 14.5735 15.6895 14.7224 15.6825Z" fill="#A7A7A7"/>
<path d="M7.97254 16.5001V15.6151H9.47254V11.7226L8.07754 12.4726L7.66504 11.6776L9.40504 10.7026H10.5V15.5776H11.835V16.5001H7.97254Z" fill="#A7A7A7"/>
</svg>
