<svg width="24" height="24" viewBox="0 0 24 24" fill="none" xmlns="http://www.w3.org/2000/svg">
<path d="M3 13.5C3 15.28 3.52784 17.0201 4.51677 18.5001C5.50571 19.9802 6.91131 21.1337 8.55585 21.8149C10.2004 22.4961 12.01 22.6743 13.7558 22.3271C15.5016 21.9798 17.1053 21.1226 18.364 19.864C19.6226 18.6053 20.4798 17.0016 20.8271 15.2558C21.1743 13.51 20.9961 11.7004 20.3149 10.0559C19.6337 8.41132 18.4802 7.00571 17.0001 6.01677C15.5201 5.02784 13.78 4.5 12 4.5H9V0.75L4.5 5.25L9 9.75V6H12C13.4834 6 14.9334 6.43987 16.1668 7.26398C17.4001 8.08809 18.3614 9.25943 18.9291 10.6299C19.4968 12.0003 19.6453 13.5083 19.3559 14.9632C19.0665 16.418 18.3522 17.7544 17.3033 18.8033C16.2544 19.8522 14.918 20.5665 13.4632 20.8559C12.0083 21.1453 10.5003 20.9968 9.12987 20.4291C7.75943 19.8614 6.58809 18.9001 5.76398 17.6668C4.93987 16.4334 4.5 14.9834 4.5 13.5H3Z" fill="#A7A7A7"/>
<path d="M14.7224 16.5975C14.391 16.6056 14.0623 16.5363 13.7624 16.395C13.4961 16.2598 13.2669 16.0616 13.0949 15.8175C12.9063 15.5327 12.7739 15.2145 12.7049 14.88C12.6163 14.4659 12.5735 14.0434 12.5774 13.62C12.5743 13.1966 12.6171 12.7742 12.7049 12.36C12.7753 12.0259 12.9076 11.7079 13.0949 11.4225C13.2669 11.1784 13.4961 10.9801 13.7624 10.845C14.0623 10.7037 14.391 10.6344 14.7224 10.6425C15.034 10.6188 15.3465 10.6753 15.63 10.8065C15.9136 10.9378 16.1589 11.1396 16.3424 11.3925C16.7291 12.0576 16.9117 12.8218 16.8674 13.59C16.9117 14.3581 16.7291 15.1223 16.3424 15.7875C16.1659 16.0514 15.9237 16.2649 15.6396 16.407C15.3556 16.549 15.0395 16.6146 14.7224 16.5975ZM14.7224 15.6825C14.8736 15.6915 15.0243 15.6576 15.157 15.5846C15.2897 15.5116 15.399 15.4025 15.4724 15.27C15.6516 14.9192 15.7466 14.5314 15.7499 14.1375V13.1025C15.7661 12.7157 15.6916 12.3304 15.5324 11.9775C15.4486 11.849 15.334 11.7435 15.1991 11.6705C15.0642 11.5975 14.9133 11.5592 14.7599 11.5592C14.6065 11.5592 14.4555 11.5975 14.3207 11.6705C14.1858 11.7435 14.0712 11.849 13.9874 11.9775C13.8282 12.3304 13.7537 12.7157 13.7699 13.1025V14.1375C13.7544 14.5267 13.8288 14.9142 13.9874 15.27C14.0589 15.4007 14.1658 15.5087 14.2957 15.5817C14.4257 15.6546 14.5735 15.6895 14.7224 15.6825Z" fill="#A7A7A7"/>
<path d="M7.97254 16.5001V15.6151H9.47254V11.7226L8.07754 12.4726L7.66504 11.6776L9.40504 10.7026H10.5V15.5776H11.835V16.5001H7.97254Z" fill="#A7A7A7"/>
</svg>
